HIERARCHY
ROOT Hips
{
	OFFSET 0.00000 0.00000 0.00000
	CHANNELS 6 Xposition Yposition Zposition Zrotation Yrotation Xrotation 
	JOINT LHipJoint
	{
		OFFSET 0 0 0
		CHANNELS 3 Zrotation Yrotation Xrotation
		JOINT LeftHip
		{
			OFFSET 1.61328 -1.70571 0.84375
			CHANNELS 3 Zrotation Yrotation Xrotation
			JOINT LeftKnee
			{
				OFFSET 2.32400 -6.38513 0.00000
				CHANNELS 3 Zrotation Yrotation Xrotation
				JOINT LeftAnkle
				{
					OFFSET 2.58843 -7.11166 0.00000
					CHANNELS 3 Zrotation Yrotation Xrotation
					JOINT LeftToe
					{
						OFFSET 0.17200 -0.47257 2.47970
						CHANNELS 3 Zrotation Yrotation Xrotation
						End Site
						{
							OFFSET 0.00000 -0.00000 1.26912
						}
					}
				}
			}
		}
	}
	JOINT RHipJoint
	{
		OFFSET 0 0 0
		CHANNELS 3 Zrotation Yrotation Xrotation
		JOINT RightHip
		{
			OFFSET -1.49930 -1.70570 0.84375
			CHANNELS 3 Zrotation Yrotation Xrotation
			JOINT RightKnee
			{
				OFFSET -2.30458 -6.33178 0.00000
				CHANNELS 3 Zrotation Yrotation Xrotation
				JOINT RightAnkle
				{
					OFFSET -2.62261 -7.20556 0.00000
					CHANNELS 3 Zrotation Yrotation Xrotation
					JOINT RightToe
					{
						OFFSET -0.18709 -0.51403 2.51340
						CHANNELS 3 Zrotation Yrotation Xrotation
						End Site
						{
							OFFSET -0.00000 -0.00000 1.28858
						}
					}
				}
			}
		}
	}
	JOINT lowerback
	{
		OFFSET 0 0 0
		CHANNELS 3 Zrotation Yrotation Xrotation
		JOINT Chest
		{
			OFFSET -0.03798 2.19274 -0.19881
			CHANNELS 3 Zrotation Yrotation Xrotation
			JOINT Chest2
			{
				OFFSET -0.00024 2.19460 0.05248
				CHANNELS 3 Zrotation Yrotation Xrotation
				JOINT lowerneck
				{
					OFFSET 0 0 0
					CHANNELS 3 Zrotation Yrotation Xrotation
					JOINT Neck
					{
						OFFSET -0.00746 1.82323 0.17286
						CHANNELS 3 Zrotation Yrotation Xrotation
						JOINT Head
						{
							OFFSET 0.11826 1.82121 -0.27841
							CHANNELS 3 Zrotation Yrotation Xrotation
							End Site
							{
								OFFSET 0.03496 1.85543 -0.11495
							}
						}
					}
				}
				JOINT LeftCollar
				{
					OFFSET 0 0 0
					CHANNELS 3 Zrotation Yrotation Xrotation
					JOINT LeftShoulder
					{
						OFFSET 3.71926 0.78840 0.25473
CHANNELS 3 Zrotation Xrotation Yrotation
						JOINT LeftElbow
						{
OFFSET 0 -5.375870 0.000000
CHANNELS 3 Zrotation Xrotation Yrotation
							JOINT LeftWrist
							{
OFFSET 0 -3.359770 0.000000
CHANNELS 3 Zrotation Xrotation Yrotation
								JOINT lhand
								{
									OFFSET 0 0 0
CHANNELS 3 Zrotation Xrotation Yrotation
									JOINT LFingers
									{
OFFSET 0 -0.561860 0.000000
CHANNELS 3 Zrotation Xrotation Yrotation
										End Site
										{
OFFSET 0 -0.452990 0.000000
										}
									}
								}
								JOINT LThumb
								{
OFFSET 0 0.000000 0.000000
CHANNELS 3 Zrotation Xrotation Yrotation
									End Site
									{
OFFSET 0 -0.459900 0.459900
									}
								}
							}
						}
					}
				}
				JOINT RightCollar
				{
					OFFSET 0 0 0
					CHANNELS 3 Zrotation Yrotation Xrotation
					JOINT RightShoulder
					{
						OFFSET -3.65136 0.56074 0.01624
CHANNELS 3 Zrotation Xrotation Yrotation
						JOINT RightElbow
						{
OFFSET 0 -5.228190 0.000000
CHANNELS 3 Zrotation Xrotation Yrotation
							JOINT RightWrist
							{
OFFSET 0 -3.407640 0.000000
CHANNELS 3 Zrotation Xrotation Yrotation
								JOINT rhand
								{
									OFFSET 0 0 0
CHANNELS 3 Zrotation Xrotation Yrotation
									JOINT RFingers
									{
OFFSET 0 -0.583250 0.000000
CHANNELS 3 Zrotation Xrotation Yrotation
										End Site
										{
OFFSET 0 -0.470240 0.000000
										}
									}
								}
								JOINT RThumb
								{
OFFSET 0 0.000000 0.000000
CHANNELS 3 Zrotation Xrotation Yrotation
									End Site
									{
OFFSET 0 -0.477420 0.477420
									}
								}
							}
						}
					}
				}
			}
		}
	}
}
MOTION
Frames: 10
Frame Time: 0.008333333333333333
50.808900 16.242000 -7.445600 -7.816900 -85.787600 4.767500 0.000000 0.000000 0.000000 -16.291400 4.416600 -16.269100 3.860100 11.971900 35.632700 0.595400 -7.284600 -13.901900 0.470700 -4.400100 -12.205100 0.000000 0.000000 0.000000 18.407600 -0.136300 -18.684300 -5.873100 -14.304200 44.470400 -1.869900 2.437500 -25.213300 -0.666100 -5.219600 14.535900 0.483400 0.370900 8.197500 0.395900 -0.094800 11.258200 0.117200 -0.272900 7.242700 -0.666100 -2.656400 -5.780000 5.263200 -4.075900 8.741700 1.661300 -1.826600 4.046700 0.000000 0.000000 0.000000 5.422200 -8.699700 -33.992600 18.908900 -29.305400 4.986200 19.693500 -5.183300 -18.447600 0.000000 0.000000 0.000000 -7.125000 0.000000 0.000000 -8.300900 49.309100 0.887600 0.000000 0.000000 0.000000 -2.386100 -8.970900 23.122500 -16.895100 -26.719300 -4.040100 -23.236300 -7.080500 -4.328200 0.000000 0.000000 0.000000 7.125000 0.000000 -0.000000 2.566200 25.270700 1.226300
50.808500 16.240300 -7.439500 -8.442914 -85.795692 5.311412 0.000000 0.000000 0.000000 -16.255396 4.428295 -16.193605 3.868502 11.983303 35.673010 0.599200 -7.262703 -13.941199 0.483299 -4.458094 -12.368983 0.000000 0.000000 0.000000 18.444502 -0.144407 -18.582302 -5.870601 -14.301801 44.460303 -1.886000 2.404196 -25.332799 -0.632197 -5.087490 14.158371 0.470109 0.354099 8.165808 0.424699 -0.116502 11.233010 0.155394 -0.285201 7.232508 -0.643302 -2.667297 -5.819497 5.268399 -4.103496 8.886997 1.657800 -1.836998 4.106998 0.000000 0.000000 0.000000 5.425999 -8.863899 -33.902608 18.733798 -29.086598 4.900799 19.527529 -4.867335 -18.440566 0.000000 0.000000 0.000000 -7.125000 0.000000 0.000000 -8.458362 49.276170 0.897690 0.000000 0.000000 0.000000 -2.455798 -9.028301 23.169488 -16.793999 -26.585399 -3.994700 -23.260897 -7.117886 -4.382196 0.000000 0.000000 0.000000 7.125000 0.000000 0.000000 2.547903 25.211204 1.221001
50.806500 16.242900 -7.441498 -8.264379 -85.802507 5.169975 0.000000 0.000000 0.000000 -16.266611 4.438193 -16.191793 3.855000 11.964801 35.607702 0.597101 -7.253080 -13.916712 0.483502 -4.459010 -12.371628 0.000000 0.000000 0.000000 18.434591 -0.201398 -18.620096 -5.863199 -14.294399 44.430097 -1.880800 2.439588 -25.288799 -0.632796 -5.089883 14.165051 0.439402 0.347203 8.112704 0.420202 -0.118097 11.154111 0.168300 -0.284899 7.174710 -0.672885 -2.690199 -5.835400 5.266690 -4.125900 8.808626 1.660794 -1.849700 4.083809 0.000000 0.000000 0.000000 5.479575 -8.816101 -34.040052 18.844067 -29.224459 4.954484 19.439207 -4.912645 -18.596666 0.000000 0.000000 0.000000 -7.125000 0.000000 0.000000 -8.589882 49.423466 0.943191 0.000000 0.000000 0.000000 -2.464402 -9.018179 23.340274 -16.852595 -26.663093 -4.020998 -23.240115 -7.228794 -4.398197 0.000000 0.000000 0.000000 7.125000 0.000000 0.000000 2.563489 25.194603 1.229494
50.802602 16.241901 -7.452494 -8.210404 -85.729134 5.107505 0.000000 0.000000 0.000000 -16.211212 4.448008 -16.197793 3.856999 11.967698 35.617794 0.592502 -7.331271 -13.876719 0.479505 -4.440720 -12.319955 0.000000 0.000000 0.000000 18.486286 -0.229414 -18.611399 -5.869593 -14.300793 44.455973 -1.889494 2.414408 -25.354955 -0.631594 -5.085275 14.151828 0.429327 0.341689 8.079029 0.420695 -0.124713 11.151882 0.174481 -0.288404 7.191264 -0.718294 -2.693781 -5.864676 5.275399 -4.127275 8.813007 1.671601 -1.850788 4.092896 0.000000 0.000000 0.000000 5.523024 -8.975563 -34.097350 18.851367 -29.233583 4.958033 19.415447 -4.936338 -18.596732 0.000000 0.000000 0.000000 -7.125000 0.000000 0.000000 -8.612664 49.419840 0.944905 0.000000 0.000000 0.000000 -2.522864 -9.098675 23.520859 -16.901068 -26.727157 -4.042785 -23.304765 -7.298152 -4.422490 0.000000 0.000000 0.000000 7.125000 0.000000 0.000000 2.515026 25.165920 1.207906
50.797303 16.243998 -7.468791 -7.993258 -85.570963 4.923898 0.000000 0.000000 0.000000 -16.146253 4.403618 -16.211250 3.847409 11.954612 35.571443 0.582606 -7.429751 -13.782458 0.475401 -4.421904 -12.266811 0.000000 0.000000 0.000000 18.554839 -0.305199 -18.615565 -5.859709 -14.291009 44.416135 -1.895301 2.390661 -25.400191 -0.641510 -5.124239 14.263210 0.414700 0.331922 8.058641 0.431590 -0.136873 11.146625 0.194389 -0.295287 7.196905 -0.754849 -2.722807 -5.915291 5.332283 -4.171812 8.859479 1.694885 -1.870105 4.124289 0.000000 0.000000 0.000000 5.495879 -9.064521 -34.067811 18.763527 -29.123809 4.915265 19.433850 -4.855496 -18.618604 0.000000 0.000000 0.000000 -7.125000 0.000000 0.000000 -8.601420 49.445193 0.949079 0.000000 0.000000 0.000000 -2.610767 -9.148211 23.499847 -16.887335 -26.708946 -4.036516 -23.369073 -7.236103 -4.393109 0.000000 0.000000 0.000000 7.125000 0.000000 0.000000 2.466421 25.195500 1.182805
50.790803 16.246700 -7.485591 -7.548127 -85.493343 4.529021 0.000000 0.000000 0.000000 -16.115293 4.394110 -16.224402 3.832506 11.934108 35.499328 0.578100 -7.440109 -13.734608 0.483385 -4.458532 -12.370407 0.000000 0.000000 0.000000 18.597412 -0.373199 -18.651279 -5.856401 -14.287701 44.402603 -1.898700 2.356139 -25.432211 -0.635590 -5.100762 14.196093 0.408929 0.317306 8.064973 0.429094 -0.151592 11.101720 0.195577 -0.301095 7.143438 -0.780178 -2.719204 -5.865169 5.288921 -4.159508 8.859586 1.685902 -1.867402 4.113109 0.000000 0.000000 0.000000 5.524064 -8.893092 -34.032029 18.730869 -29.082936 4.899331 19.442532 -4.878054 -18.515202 0.000000 0.000000 0.000000 -7.125000 0.000000 0.000000 -8.562185 49.340004 0.922406 0.000000 0.000000 0.000000 -2.710427 -9.031667 23.512982 -16.875834 -26.693844 -4.031415 -23.388886 -7.178406 -4.258219 0.000000 0.000000 0.000000 7.125000 0.000000 0.000000 2.451211 25.341488 1.167200
50.782011 16.250893 -7.495003 -7.929646 -85.400251 4.947459 0.000000 0.000000 0.000000 -16.061617 4.185241 -16.132181 3.812519 11.906626 35.402392 0.597774 -7.174568 -13.913654 0.502401 -4.543807 -12.611720 0.000000 0.000000 0.000000 18.669013 -0.493952 -18.551927 -5.802381 -14.234080 44.183528 -1.904621 2.539718 -25.430458 -0.688434 -5.304452 14.778891 0.420320 0.311838 8.055196 0.463643 -0.160943 11.114345 0.225584 -0.306773 7.163184 -0.696426 -2.708107 -5.754875 5.313019 -4.148503 8.750578 1.679878 -1.861805 4.050121 0.000000 0.000000 0.000000 5.297333 -9.267010 -33.578847 18.174254 -28.379714 4.631731 19.534771 -4.774697 -17.949449 0.000000 0.000000 0.000000 -7.125000 0.000000 0.000000 -8.309120 48.770426 0.777598 0.000000 0.000000 0.000000 -2.776133 -9.030541 23.349766 -16.821778 -26.622203 -4.007135 -23.389094 -7.070665 -4.210552 0.000000 0.000000 0.000000 7.125000 0.000000 0.000000 2.451004 25.393244 1.164106
50.752537 16.261595 -7.468953 -11.772104 -85.488890 8.920584 0.000000 0.000000 0.000000 -15.846934 4.173975 -16.026787 3.794244 11.881423 35.313830 0.668822 -6.659005 -14.624609 0.569223 -4.831976 -13.429980 0.000000 0.000000 0.000000 18.857578 -0.693562 -18.341727 -5.668520 -14.099222 43.636491 -1.882811 2.893646 -25.201803 -0.695376 -5.330584 14.853915 0.481615 0.292567 8.057702 0.484859 -0.195071 11.192301 0.213556 -0.323595 7.248632 -0.589854 -2.578012 -5.723050 5.451637 -3.979700 8.445002 1.715626 -1.774645 3.930668 0.000000 0.000000 0.000000 5.163567 -8.917761 -33.199720 18.503911 -28.797660 4.789509 19.467122 -4.760220 -18.154559 0.000000 0.000000 0.000000 -7.125000 0.000000 0.000000 -8.432738 48.971957 0.831464 0.000000 0.000000 0.000000 -2.796577 -9.093505 23.336134 -16.851319 -26.661360 -4.020418 -23.341234 -7.233115 -4.379992 0.000000 0.000000 0.000000 7.125000 0.000000 0.000000 2.487425 25.210783 1.192029
50.683392 16.245528 -7.362739 -17.161721 -85.453878 14.637678 0.000000 0.000000 0.000000 -15.755393 3.912811 -16.402154 3.946401 12.088733 36.046454 0.742768 -6.801768 -15.402727 0.544358 -4.726968 -13.131495 0.000000 0.000000 0.000000 18.872428 -0.739928 -18.435424 -5.668329 -14.099029 43.635612 -1.886899 3.209350 -25.165300 -0.604052 -4.974812 13.836609 0.465019 0.247045 8.003023 0.441114 -0.264557 11.293034 0.176755 -0.361017 7.391560 -0.545408 -2.519236 -5.581639 5.585636 -3.896459 8.105322 1.756496 -1.734627 3.782779 0.000000 0.000000 0.000000 5.061247 -8.819826 -32.910838 18.440125 -28.717005 4.758864 19.485877 -4.607604 -18.194872 0.000000 0.000000 0.000000 -7.125000 0.000000 0.000000 -8.426517 49.016384 0.840088 0.000000 0.000000 0.000000 -2.877015 -9.028509 23.198909 -16.842718 -26.649955 -4.016552 -23.268059 -7.243858 -4.477804 0.000000 0.000000 0.000000 7.125000 0.000000 0.000000 2.542731 25.107097 1.224715
50.553565 16.225211 -7.197285 -27.680089 -85.507056 25.491403 0.000000 0.000000 0.000000 -15.457314 3.783746 -16.592807 4.120366 12.318827 36.869475 0.777847 -7.683804 -15.829593 0.402237 -4.071587 -11.278234 0.000000 0.000000 0.000000 19.083466 -0.614347 -18.344928 -5.705253 -14.136453 43.786812 -1.883639 3.531173 -25.079913 -0.537828 -4.699144 13.052445 0.258318 0.399260 8.151329 0.394105 -0.087702 11.486562 0.238726 -0.296210 7.522471 -0.567228 -2.444465 -5.309808 5.717056 -3.785096 7.790452 1.810424 -1.685135 3.619719 0.000000 0.000000 0.000000 5.157369 -9.133203 -32.437688 18.107663 -28.294818 4.600167 19.341276 -4.166190 -18.270262 0.000000 0.000000 0.000000 -7.125000 0.000000 0.000000 -8.587030 49.072217 0.868165 0.000000 0.000000 0.000000 -2.760804 -8.896764 23.158294 -16.806312 -26.601817 -4.000271 -23.230393 -7.216751 -4.506673 0.000000 0.000000 0.000000 7.125000 0.000000 0.000000 2.571031 25.077027 1.240165
